<mxfile modified="2021-09-04T04:20:51.385Z" host="app.diagrams.net" agent="5.0 (X11)" etag="YvhtSs5mKCRsx9WGGvcH" version="15.0.6" type="github">
  <diagram id="7gcUSTIZ7YSJ5vT40chW" name="Page-1">
    <mxGraphModel dx="1239" dy="764" grid="1" gridSize="10" guides="1" tooltips="1" connect="1" arrows="1" fold="1" page="1" pageScale="1" pageWidth="1169" pageHeight="827" math="0" shadow="0">
      <root>
        <mxCell id="0" />
        <mxCell id="1" parent="0" />
        <mxCell id="Q5mEZpU6NIHMgQ-PLpTi-4" value="Kubernetes Cluster" style="rounded=1;whiteSpace=wrap;html=1;fillColor=#1ba1e2;strokeColor=#006EAF;labelPosition=center;verticalLabelPosition=top;align=center;verticalAlign=bottom;fontStyle=1" vertex="1" parent="1">
          <mxGeometry x="220" y="354" width="680" height="316" as="geometry" />
        </mxCell>
        <mxCell id="Q5mEZpU6NIHMgQ-PLpTi-5" value="Node" style="rounded=1;whiteSpace=wrap;html=1;fillColor=#dae8fc;strokeColor=#6c8ebf;labelPosition=center;verticalLabelPosition=top;align=center;verticalAlign=bottom;fontStyle=1;arcSize=11;" vertex="1" parent="1">
          <mxGeometry x="240" y="390" width="200" height="230" as="geometry" />
        </mxCell>
        <mxCell id="Q5mEZpU6NIHMgQ-PLpTi-6" value="Node" style="rounded=1;whiteSpace=wrap;html=1;fillColor=#dae8fc;strokeColor=#6c8ebf;labelPosition=center;verticalLabelPosition=top;align=center;verticalAlign=bottom;fontStyle=1;arcSize=11;" vertex="1" parent="1">
          <mxGeometry x="460" y="390" width="200" height="230" as="geometry" />
        </mxCell>
        <mxCell id="Q5mEZpU6NIHMgQ-PLpTi-7" value="Node" style="rounded=1;whiteSpace=wrap;html=1;fillColor=#dae8fc;strokeColor=#6c8ebf;labelPosition=center;verticalLabelPosition=top;align=center;verticalAlign=bottom;fontStyle=1;arcSize=11;" vertex="1" parent="1">
          <mxGeometry x="680" y="390" width="200" height="230" as="geometry" />
        </mxCell>
        <mxCell id="Q5mEZpU6NIHMgQ-PLpTi-9" value="Master" style="rounded=1;whiteSpace=wrap;html=1;fillColor=#fff2cc;strokeColor=#d6b656;labelPosition=center;verticalLabelPosition=top;align=center;verticalAlign=bottom;fontStyle=1;arcSize=11;" vertex="1" parent="1">
          <mxGeometry x="260" y="430" width="110" height="60" as="geometry" />
        </mxCell>
        <mxCell id="Q5mEZpU6NIHMgQ-PLpTi-8" value="" style="shape=image;verticalLabelPosition=bottom;labelBackgroundColor=#ffffff;verticalAlign=top;aspect=fixed;imageAspect=0;image=https://upload.wikimedia.org/wikipedia/commons/thumb/f/f3/Apache_Spark_logo.svg/512px-Apache_Spark_logo.svg.png;" vertex="1" parent="1">
          <mxGeometry x="270" y="438" width="84.69" height="44" as="geometry" />
        </mxCell>
        <mxCell id="Q5mEZpU6NIHMgQ-PLpTi-12" value="Worker" style="rounded=1;whiteSpace=wrap;html=1;fillColor=#fff2cc;strokeColor=#d6b656;labelPosition=center;verticalLabelPosition=top;align=center;verticalAlign=bottom;fontStyle=1;arcSize=11;" vertex="1" parent="1">
          <mxGeometry x="260" y="520" width="110" height="60" as="geometry" />
        </mxCell>
        <mxCell id="Q5mEZpU6NIHMgQ-PLpTi-13" value="" style="shape=image;verticalLabelPosition=bottom;labelBackgroundColor=#ffffff;verticalAlign=top;aspect=fixed;imageAspect=0;image=https://upload.wikimedia.org/wikipedia/commons/thumb/f/f3/Apache_Spark_logo.svg/512px-Apache_Spark_logo.svg.png;" vertex="1" parent="1">
          <mxGeometry x="270" y="528" width="84.69" height="44" as="geometry" />
        </mxCell>
        <mxCell id="Q5mEZpU6NIHMgQ-PLpTi-14" value="Worker" style="rounded=1;whiteSpace=wrap;html=1;fillColor=#fff2cc;strokeColor=#d6b656;labelPosition=center;verticalLabelPosition=top;align=center;verticalAlign=bottom;fontStyle=1;arcSize=11;" vertex="1" parent="1">
          <mxGeometry x="725" y="430" width="110" height="60" as="geometry" />
        </mxCell>
        <mxCell id="Q5mEZpU6NIHMgQ-PLpTi-15" value="" style="shape=image;verticalLabelPosition=bottom;labelBackgroundColor=#ffffff;verticalAlign=top;aspect=fixed;imageAspect=0;image=https://upload.wikimedia.org/wikipedia/commons/thumb/f/f3/Apache_Spark_logo.svg/512px-Apache_Spark_logo.svg.png;" vertex="1" parent="1">
          <mxGeometry x="735" y="438" width="84.69" height="44" as="geometry" />
        </mxCell>
        <mxCell id="Q5mEZpU6NIHMgQ-PLpTi-16" value="Worker" style="rounded=1;whiteSpace=wrap;html=1;fillColor=#fff2cc;strokeColor=#d6b656;labelPosition=center;verticalLabelPosition=top;align=center;verticalAlign=bottom;fontStyle=1;arcSize=11;" vertex="1" parent="1">
          <mxGeometry x="505" y="520" width="110" height="60" as="geometry" />
        </mxCell>
        <mxCell id="Q5mEZpU6NIHMgQ-PLpTi-17" value="" style="shape=image;verticalLabelPosition=bottom;labelBackgroundColor=#ffffff;verticalAlign=top;aspect=fixed;imageAspect=0;image=https://upload.wikimedia.org/wikipedia/commons/thumb/f/f3/Apache_Spark_logo.svg/512px-Apache_Spark_logo.svg.png;" vertex="1" parent="1">
          <mxGeometry x="515" y="528" width="84.69" height="44" as="geometry" />
        </mxCell>
        <mxCell id="Q5mEZpU6NIHMgQ-PLpTi-18" value="Worker" style="rounded=1;whiteSpace=wrap;html=1;fillColor=#fff2cc;strokeColor=#d6b656;labelPosition=center;verticalLabelPosition=top;align=center;verticalAlign=bottom;fontStyle=1;arcSize=11;" vertex="1" parent="1">
          <mxGeometry x="505" y="430" width="110" height="60" as="geometry" />
        </mxCell>
        <mxCell id="Q5mEZpU6NIHMgQ-PLpTi-19" value="" style="shape=image;verticalLabelPosition=bottom;labelBackgroundColor=#ffffff;verticalAlign=top;aspect=fixed;imageAspect=0;image=https://upload.wikimedia.org/wikipedia/commons/thumb/f/f3/Apache_Spark_logo.svg/512px-Apache_Spark_logo.svg.png;" vertex="1" parent="1">
          <mxGeometry x="515" y="438" width="84.69" height="44" as="geometry" />
        </mxCell>
        <mxCell id="Q5mEZpU6NIHMgQ-PLpTi-20" value="Worker" style="rounded=1;whiteSpace=wrap;html=1;fillColor=#fff2cc;strokeColor=#d6b656;labelPosition=center;verticalLabelPosition=top;align=center;verticalAlign=bottom;fontStyle=1;arcSize=11;" vertex="1" parent="1">
          <mxGeometry x="725" y="520" width="110" height="60" as="geometry" />
        </mxCell>
        <mxCell id="Q5mEZpU6NIHMgQ-PLpTi-21" value="" style="shape=image;verticalLabelPosition=bottom;labelBackgroundColor=#ffffff;verticalAlign=top;aspect=fixed;imageAspect=0;image=https://upload.wikimedia.org/wikipedia/commons/thumb/f/f3/Apache_Spark_logo.svg/512px-Apache_Spark_logo.svg.png;" vertex="1" parent="1">
          <mxGeometry x="735" y="528" width="84.69" height="44" as="geometry" />
        </mxCell>
      </root>
    </mxGraphModel>
  </diagram>
</mxfile>
